<svg xmlns="http://www.w3.org/2000/svg" viewBox="0 0 147.69 147"><defs><style>.cls-1{fill:#f0d8b6;}</style></defs><g id="Layer_2" data-name="Layer 2"><g id="Layer_1-2" data-name="Layer 1"><path class="cls-1" d="M74.78,11.36a62,62,0,1,0,62,62A62,62,0,0,0,74.78,11.36Zm.2,94.15a32,32,0,1,1,32-32A32,32,0,0,1,75,105.51Z" transform="translate(0)"/><path class="cls-1" d="M62.94,15.81H85.49a2.73,2.73,0,0,0,2.65-3.39L85.56,2.07A2.74,2.74,0,0,0,82.91,0H65.17A2.73,2.73,0,0,0,62.5,2.15L60.27,12.5A2.74,2.74,0,0,0,62.94,15.81Z" transform="translate(0)"/><path class="cls-1" d="M26.21,38.24,43.28,23.52a2.74,2.74,0,0,0-.21-4.3l-8.71-6.15a2.75,2.75,0,0,0-3.36.16L17.57,24.82A2.72,2.72,0,0,0,17,28.2L22,37.49A2.73,2.73,0,0,0,26.21,38.24Z" transform="translate(0)"/><path class="cls-1" d="M15.71,83.09l.86-22.53a2.74,2.74,0,0,0-3.29-2.78L2.84,60A2.75,2.75,0,0,0,.67,62.54L0,80.27A2.72,2.72,0,0,0,2.05,83l10.26,2.62A2.72,2.72,0,0,0,15.71,83.09Z" transform="translate(0)"/><path class="cls-1" d="M86.3,131.19H63.75a2.73,2.73,0,0,0-2.65,3.39l2.59,10.35A2.72,2.72,0,0,0,66.33,147H84.07a2.73,2.73,0,0,0,2.67-2.15L89,134.5A2.74,2.74,0,0,0,86.3,131.19Z" transform="translate(0)"/><path class="cls-1" d="M40.26,121.33,24.83,104.89a2.73,2.73,0,0,0-4.28.39l-5.78,9a2.73,2.73,0,0,0,.3,3.34l12.14,12.94a2.75,2.75,0,0,0,3.4.47l9.07-5.46A2.73,2.73,0,0,0,40.26,121.33Z" transform="translate(0)"/><path class="cls-1" d="M131.88,63.78V86.33A2.73,2.73,0,0,0,135.27,89l10.35-2.58a2.73,2.73,0,0,0,2.07-2.64V66a2.73,2.73,0,0,0-2.16-2.66l-10.35-2.23A2.73,2.73,0,0,0,131.88,63.78Z" transform="translate(0)"/><path class="cls-1" d="M101.67,21.32,118.1,36.77a2.73,2.73,0,0,0,4.25-.66l5.21-9.31a2.73,2.73,0,0,0-.51-3.32L114.12,11.33a2.73,2.73,0,0,0-3.42-.26l-8.71,6A2.73,2.73,0,0,0,101.67,21.32Z" transform="translate(0)"/><path class="cls-1" d="M123.19,104.89l-15.44,16.44a2.73,2.73,0,0,0,.66,4.25l9.31,5.2a2.73,2.73,0,0,0,3.32-.51l12.14-12.93a2.73,2.73,0,0,0,.26-3.42l-6-8.71A2.73,2.73,0,0,0,123.19,104.89Z" transform="translate(0)"/></g></g></svg>